<svg width="70" height="70" viewBox="0 0 70 70" fill="none" xmlns="http://www.w3.org/2000/svg" xmlns:xlink="http://www.w3.org/1999/xlink">
<path d="M62.167,35C62.167,50.004 50.004,62.167 35,62.167L35,66.167C52.213,66.167 66.167,52.213 66.167,35L62.167,35ZM35,62.167C19.996,62.167 7.833,50.004 7.833,35L3.833,35C3.833,52.213 17.787,66.167 35,66.167L35,62.167ZM7.833,35C7.833,19.996 19.996,7.833 35,7.833L35,3.833C17.787,3.833 3.833,17.787 3.833,35L7.833,35ZM35,7.833C50.004,7.833 62.167,19.996 62.167,35L66.167,35C66.167,17.787 52.213,3.833 35,3.833L35,7.833Z" fill="#FFFFFF"/>
<path d="M24.748,33.586C23.967,32.805 22.7,32.805 21.919,33.586C21.138,34.367 21.138,35.633 21.919,36.414L24.748,33.586ZM35,46.667L33.586,48.081C34.367,48.862 35.633,48.862 36.414,48.081L35,46.667ZM48.081,36.414C48.862,35.633 48.862,34.367 48.081,33.586C47.3,32.805 46.034,32.805 45.253,33.586L48.081,36.414ZM21.919,36.414L33.586,48.081L36.414,45.252L24.748,33.586L21.919,36.414ZM36.414,48.081L48.081,36.414L45.253,33.586L33.586,45.252L36.414,48.081Z" fill="#FFFFFF"/>
<line x1="33" y1="23.333" x2="33" y2="46.667" stroke="#FFFFFF" stroke-width="2" stroke-miterlimit="3.999327" stroke-linecap="round" stroke-linejoin="round"/>
</svg>
