<svg width="60" height="60" viewBox="0 0 60 60" fill="none" xmlns="http://www.w3.org/2000/svg" xmlns:xlink="http://www.w3.org/1999/xlink">
<path d="M45.5,20C45.5,28.56 38.56,35.5 30,35.5L30,39.5C40.77,39.5 49.5,30.77 49.5,20L45.5,20ZM30,35.5C21.44,35.5 14.5,28.56 14.5,20L10.5,20C10.5,30.77 19.23,39.5 30,39.5L30,35.5ZM14.5,20C14.5,11.44 21.44,4.5 30,4.5L30,0.5C19.23,0.5 10.5,9.23 10.5,20L14.5,20ZM30,4.5C38.56,4.5 45.5,11.44 45.5,20L49.5,20C49.5,9.23 40.77,0.5 30,0.5L30,4.5Z" fill="#FFFFFF"/>
<path d="M22.508,34.989C22.653,33.894 21.883,32.888 20.788,32.743C19.693,32.597 18.688,33.367 18.542,34.462L22.508,34.989ZM17.5,57.5L15.517,57.237C15.416,57.998 15.76,58.75 16.402,59.172C17.044,59.593 17.87,59.61 18.529,59.215L17.5,57.5ZM30,50L31.029,48.285C30.396,47.905 29.604,47.905 28.971,48.285L30,50ZM42.5,57.5L41.471,59.215C42.13,59.61 42.956,59.593 43.598,59.172C44.24,58.75 44.584,57.998 44.483,57.237L42.5,57.5ZM41.458,34.437C41.312,33.342 40.307,32.572 39.212,32.718C38.117,32.863 37.347,33.868 37.492,34.963L41.458,34.437ZM18.542,34.462L15.517,57.237L19.483,57.764L22.508,34.989L18.542,34.462ZM18.529,59.215L31.029,51.715L28.971,48.285L16.471,55.785L18.529,59.215ZM28.971,51.715L41.471,59.215L43.529,55.785L31.029,48.285L28.971,51.715ZM44.483,57.237L41.458,34.437L37.492,34.963L40.517,57.763L44.483,57.237Z" fill="#FFFFFF"/>
</svg>
