<svg width="50" height="50" viewBox="0 0 50 50" fill="none" xmlns="http://www.w3.org/2000/svg" xmlns:xlink="http://www.w3.org/1999/xlink">
<path d="M39.5,21.5C39.5,31.441 31.441,39.5 21.5,39.5L21.5,43.5C33.65,43.5 43.5,33.65 43.5,21.5L39.5,21.5ZM21.5,39.5C11.559,39.5 3.5,31.441 3.5,21.5L-0.5,21.5C-0.5,33.65 9.35,43.5 21.5,43.5L21.5,39.5ZM3.5,21.5C3.5,11.559 11.559,3.5 21.5,3.5L21.5,-0.5C9.35,-0.5 -0.5,9.35 -0.5,21.5L3.5,21.5ZM21.5,3.5C31.441,3.5 39.5,11.559 39.5,21.5L43.5,21.5C43.5,9.35 33.65,-0.5 21.5,-0.5L21.5,3.5Z" fill="#FFFFFF"/>
<path d="M45.086,47.914C45.867,48.695 47.133,48.695 47.914,47.914C48.695,47.133 48.695,45.867 47.914,45.086L45.086,47.914ZM37.039,34.211C36.258,33.43 34.992,33.43 34.211,34.211C33.43,34.992 33.43,36.258 34.211,37.039L37.039,34.211ZM47.914,45.086L37.039,34.211L34.211,37.039L45.086,47.914L47.914,45.086Z" fill="#FFFFFF"/>
</svg>
