<svg width="1100" height="642" viewBox="0 0 1100 642" fill="none" xmlns="http://www.w3.org/2000/svg" xmlns:xlink="http://www.w3.org/1999/xlink">
<path d="M839,320.32C839,235.45 805.286,154.057 745.274,94.046C685.262,34.034 603.87,0.32 519,0.32C434.13,0.32 352.738,34.034 292.726,94.046C232.714,154.057 199,235.45 199,320.32L295.028,320.32C295.028,260.918 318.625,203.95 360.628,161.948C402.63,119.945 459.598,96.348 519,96.348C578.402,96.348 635.37,119.945 677.372,161.948C719.374,203.95 742.972,260.918 742.972,320.32L839,320.32Z" fill="#D9D9D9"/>
<path d="M199,320.32C199,253.852 219.697,189.034 258.218,134.867C296.739,80.699 351.171,39.871 413.956,18.052C476.74,-3.766 544.762,-5.493 608.572,13.112C672.382,31.717 728.816,69.731 770.036,121.874L694.726,181.408C665.872,144.907 626.368,118.298 581.7,105.274C537.032,92.251 489.418,93.46 445.47,108.733C401.52,124.006 363.417,152.586 336.453,190.503C309.488,228.42 295,273.792 295,320.32L199,320.32Z" transform="rotate(-0.115 519 320.32)" fill="#995E1C"/>
<line x1="-1" y1="435" x2="1099" y2="435" stroke="#AAAAAA" stroke-width="1" stroke-miterlimit="3.999327"/>
<line x1="-1" y1="515" x2="1099" y2="515" stroke="#AAAAAA" stroke-width="1" stroke-miterlimit="3.999327"/>
</svg>
