<svg width="44" height="42" viewBox="0 0 44 42" fill="none" xmlns="http://www.w3.org/2000/svg" xmlns:xlink="http://www.w3.org/1999/xlink">
<path d="M32.564,31.508C33.453,30.852 33.641,29.6 32.984,28.711C32.328,27.823 31.075,27.635 30.187,28.292L32.564,31.508ZM21.164,33.333L21.164,35.333C21.175,35.333 21.185,35.333 21.196,35.333L21.164,33.333ZM2.254,20L0.504,19.031C0.18,19.616 0.17,20.323 0.476,20.917L2.254,20ZM12.143,11.707C13.03,11.05 13.217,9.798 12.56,8.91C11.903,8.022 10.65,7.835 9.763,8.493L12.143,11.707ZM17.111,5.116C16.034,5.361 15.359,6.432 15.604,7.509C15.848,8.586 16.919,9.262 17.997,9.017L17.111,5.116ZM21.164,6.667L21.16,8.667L21.164,8.667L21.164,6.667ZM40.074,20L41.826,20.966C42.148,20.382 42.158,19.676 41.852,19.083L40.074,20ZM34.851,24.006C34.127,24.84 34.216,26.103 35.05,26.827C35.884,27.551 37.148,27.462 37.872,26.628L34.851,24.006ZM26.251,24.919C27.016,24.123 26.991,22.857 26.195,22.091C25.398,21.326 24.132,21.351 23.367,22.147L26.251,24.919ZM18.86,17.951C19.68,17.21 19.744,15.946 19.004,15.126C18.263,14.306 16.999,14.242 16.179,14.983L18.86,17.951ZM30.187,28.292C27.588,30.212 24.415,31.282 21.132,31.334L21.196,35.333C25.302,35.268 29.286,33.931 32.564,31.508L30.187,28.292ZM21.164,31.333C15.922,31.333 11.681,28.427 8.634,25.276C7.127,23.718 5.965,22.152 5.181,20.975C4.79,20.388 4.496,19.902 4.303,19.569C4.206,19.403 4.135,19.275 4.089,19.192C4.067,19.15 4.051,19.12 4.041,19.101C4.036,19.092 4.033,19.086 4.031,19.083C4.03,19.081 4.03,19.081 4.03,19.081C4.03,19.081 4.03,19.081 4.03,19.081C4.03,19.082 4.031,19.082 4.031,19.082C4.031,19.083 4.031,19.083 2.254,20C0.476,20.917 0.477,20.917 0.477,20.918C0.477,20.918 0.478,20.919 0.478,20.92C0.478,20.921 0.479,20.923 0.48,20.924C0.482,20.927 0.484,20.932 0.486,20.936C0.492,20.946 0.498,20.959 0.507,20.975C0.524,21.007 0.548,21.052 0.578,21.108C0.64,21.22 0.728,21.378 0.843,21.577C1.073,21.973 1.41,22.529 1.852,23.192C2.733,24.515 4.043,26.282 5.759,28.057C9.158,31.573 14.372,35.333 21.164,35.333L21.164,31.333ZM4.004,20.969C6.002,17.359 8.775,14.2 12.143,11.707L9.763,8.493C5.941,11.322 2.783,14.914 0.504,19.031L4.004,20.969ZM17.997,9.017C19.033,8.782 20.094,8.664 21.16,8.667L21.169,4.667C19.803,4.664 18.442,4.814 17.111,5.116L17.997,9.017ZM21.164,8.667C26.406,8.667 30.647,11.573 33.694,14.724C35.202,16.282 36.363,17.848 37.148,19.025C37.538,19.612 37.832,20.098 38.026,20.431C38.122,20.597 38.193,20.725 38.239,20.808C38.262,20.85 38.278,20.88 38.287,20.899C38.292,20.908 38.296,20.914 38.297,20.917C38.298,20.919 38.298,20.919 38.298,20.919C38.298,20.919 38.298,20.919 38.298,20.919C38.298,20.918 38.298,20.918 38.298,20.918C38.297,20.917 38.297,20.917 40.074,20C41.852,19.083 41.852,19.083 41.851,19.082C41.851,19.082 41.851,19.081 41.85,19.08C41.85,19.079 41.849,19.078 41.848,19.076C41.846,19.073 41.844,19.068 41.842,19.064C41.837,19.054 41.83,19.041 41.821,19.025C41.804,18.993 41.78,18.948 41.75,18.892C41.689,18.78 41.6,18.622 41.485,18.423C41.256,18.027 40.918,17.471 40.476,16.808C39.595,15.485 38.286,13.718 36.57,11.943C33.17,8.427 27.956,4.667 21.164,4.667L21.164,8.667ZM38.323,19.034C37.348,20.803 36.184,22.469 34.851,24.006L37.872,26.628C39.389,24.88 40.714,22.982 41.826,20.966L38.323,19.034ZM23.367,22.147C23.081,22.445 22.733,22.687 22.341,22.856L23.928,26.528C24.801,26.15 25.592,25.604 26.251,24.919L23.367,22.147ZM22.341,22.856C21.95,23.025 21.525,23.117 21.092,23.124L21.161,27.124C22.113,27.107 23.054,26.905 23.928,26.528L22.341,22.856ZM21.092,23.124C20.66,23.132 20.231,23.054 19.833,22.899L18.375,26.623C19.261,26.97 20.208,27.14 21.161,27.124L21.092,23.124ZM19.833,22.899C19.435,22.743 19.078,22.512 18.781,22.224L15.997,25.096C16.679,25.758 17.488,26.276 18.375,26.623L19.833,22.899ZM18.781,22.224C18.484,21.936 18.253,21.597 18.1,21.228L14.407,22.766C14.772,23.643 15.314,24.435 15.997,25.096L18.781,22.224ZM18.1,21.228C17.946,20.859 17.871,20.467 17.879,20.073L13.879,20C13.862,20.949 14.042,21.89 14.407,22.766L18.1,21.228ZM17.879,20.073C17.886,19.679 17.975,19.289 18.142,18.925L14.507,17.255C14.111,18.117 13.897,19.051 13.879,20L17.879,20.073ZM18.142,18.925C18.309,18.561 18.552,18.229 18.86,17.951L16.179,14.983C15.473,15.62 14.904,16.392 14.507,17.255L18.142,18.925Z" fill="#AAAAAA"/>
<path d="M3.646,0.231C2.853,-0.538 1.587,-0.519 0.818,0.275C0.049,1.068 0.069,2.334 0.862,3.103L3.646,0.231ZM38.682,39.769C39.475,40.538 40.742,40.518 41.51,39.725C42.279,38.932 42.26,37.666 41.467,36.897L38.682,39.769ZM0.862,3.103L38.682,39.769L41.467,36.897L3.646,0.231L0.862,3.103Z" fill="#AAAAAA"/>
</svg>
