<svg width="38" height="42" viewBox="0 0 38 42" fill="none" xmlns="http://www.w3.org/2000/svg" xmlns:xlink="http://www.w3.org/1999/xlink">
<path d="M28.283,31.428C29.127,30.715 29.233,29.453 28.52,28.609C27.807,27.766 26.546,27.659 25.702,28.372L28.283,31.428ZM18.06,33.333L18.06,35.333C18.072,35.333 18.084,35.333 18.096,35.333L18.06,33.333ZM1.519,20L-0.281,19.128C-0.54,19.662 -0.548,20.282 -0.304,20.822L1.519,20ZM10.42,11.627C11.263,10.913 11.368,9.651 10.654,8.808C9.941,7.965 8.679,7.86 7.836,8.573L10.42,11.627ZM14.4,5.131C13.331,5.408 12.689,6.5 12.966,7.569C13.244,8.638 14.335,9.28 15.404,9.003L14.4,5.131ZM18.06,6.667L18.055,8.667L18.06,8.667L18.06,6.667ZM34.602,20L36.403,20.869C36.66,20.336 36.668,19.717 36.425,19.178L34.602,20ZM29.76,24.107C29.093,24.987 29.264,26.242 30.144,26.91C31.024,27.577 32.278,27.406 32.946,26.526L29.76,24.107ZM22.779,24.82C23.49,23.975 23.381,22.713 22.535,22.002C21.69,21.292 20.428,21.401 19.717,22.246L22.779,24.82ZM16.309,17.858C17.077,17.064 17.057,15.798 16.263,15.03C15.47,14.261 14.204,14.282 13.435,15.075L16.309,17.858ZM25.702,28.372C23.467,30.26 20.776,31.284 18.024,31.334L18.096,35.333C21.808,35.266 25.377,33.883 28.283,31.428L25.702,28.372ZM18.06,31.333C13.68,31.333 10.052,28.547 7.369,25.375C6.054,23.821 5.039,22.256 4.351,21.076C4.009,20.489 3.751,20.002 3.581,19.668C3.496,19.501 3.434,19.372 3.394,19.288C3.374,19.246 3.359,19.215 3.351,19.197C3.346,19.187 3.343,19.181 3.342,19.178C3.341,19.176 3.341,19.175 3.341,19.175C3.341,19.175 3.341,19.175 3.341,19.176C3.341,19.176 3.341,19.176 3.341,19.177C3.342,19.177 3.342,19.178 1.519,20C-0.304,20.822 -0.304,20.823 -0.304,20.824C-0.304,20.824 -0.303,20.825 -0.303,20.825C-0.302,20.827 -0.302,20.828 -0.301,20.83C-0.3,20.833 -0.298,20.837 -0.296,20.842C-0.291,20.851 -0.285,20.864 -0.278,20.88C-0.263,20.912 -0.243,20.956 -0.216,21.011C-0.163,21.123 -0.086,21.281 0.014,21.478C0.215,21.873 0.509,22.428 0.895,23.09C1.664,24.411 2.81,26.179 4.315,27.958C7.271,31.453 11.914,35.333 18.06,35.333L18.06,31.333ZM3.319,20.872C5.073,17.249 7.498,14.1 10.42,11.627L7.836,8.573C4.469,11.422 1.706,15.024 -0.281,19.128L3.319,20.872ZM15.404,9.003C16.275,8.777 17.164,8.664 18.055,8.667L18.065,4.667C16.83,4.663 15.6,4.819 14.4,5.131L15.404,9.003ZM18.06,8.667C22.441,8.667 26.068,11.453 28.751,14.625C30.066,16.179 31.082,17.744 31.769,18.924C32.112,19.511 32.369,19.998 32.539,20.332C32.624,20.499 32.686,20.628 32.727,20.712C32.747,20.754 32.761,20.785 32.77,20.803C32.774,20.813 32.777,20.819 32.778,20.822C32.779,20.824 32.779,20.825 32.779,20.825C32.779,20.825 32.779,20.825 32.779,20.824C32.779,20.824 32.779,20.824 32.779,20.823C32.779,20.823 32.778,20.822 34.602,20C36.425,19.178 36.424,19.177 36.424,19.176C36.424,19.176 36.424,19.175 36.423,19.175C36.423,19.173 36.422,19.172 36.421,19.17C36.42,19.167 36.418,19.163 36.416,19.158C36.411,19.149 36.406,19.136 36.398,19.12C36.384,19.088 36.363,19.044 36.336,18.989C36.283,18.877 36.206,18.719 36.106,18.522C35.906,18.127 35.611,17.572 35.225,16.91C34.456,15.589 33.31,13.821 31.805,12.042C28.849,8.547 24.206,4.667 18.06,4.667L18.06,8.667ZM32.8,19.131C31.944,20.906 30.925,22.574 29.76,24.107L32.946,26.526C34.275,24.776 35.433,22.879 36.403,20.869L32.8,19.131ZM19.717,22.246C19.475,22.535 19.194,22.753 18.898,22.899L20.669,26.485C21.48,26.085 22.195,25.515 22.779,24.82L19.717,22.246ZM18.898,22.899C18.603,23.044 18.294,23.118 17.988,23.124L18.066,27.124C18.972,27.106 19.857,26.886 20.669,26.485L18.898,22.899ZM17.988,23.124C17.682,23.13 17.372,23.068 17.075,22.935L15.441,26.586C16.267,26.956 17.161,27.141 18.066,27.124L17.988,23.124ZM17.075,22.935C16.777,22.802 16.492,22.597 16.243,22.32L13.273,25C13.88,25.673 14.615,26.217 15.441,26.586L17.075,22.935ZM16.243,22.32C15.993,22.044 15.786,21.702 15.644,21.313L11.886,22.682C12.197,23.537 12.666,24.327 13.273,25L16.243,22.32ZM15.644,21.313C15.502,20.923 15.43,20.499 15.437,20.068L11.437,20.005C11.423,20.917 11.574,21.827 11.886,22.682L15.644,21.313ZM15.437,20.068C15.444,19.638 15.529,19.218 15.683,18.836L11.971,17.344C11.632,18.188 11.452,19.092 11.437,20.005L15.437,20.068ZM15.683,18.836C15.836,18.453 16.053,18.123 16.309,17.858L13.435,15.075C12.805,15.726 12.311,16.499 11.971,17.344L15.683,18.836Z" fill="#AAAAAA"/>
<path d="M3.004,0.327C2.264,-0.493 0.999,-0.558 0.179,0.182C-0.641,0.922 -0.706,2.186 0.034,3.006L3.004,0.327ZM33.117,39.673C33.857,40.493 35.121,40.558 35.941,39.818C36.761,39.078 36.826,37.814 36.086,36.993L33.117,39.673ZM0.034,3.006L33.117,39.673L36.086,36.993L3.004,0.327L0.034,3.006Z" fill="#AAAAAA"/>
</svg>
