<svg width="70" height="70" viewBox="0 0 70 70" fill="none" xmlns="http://www.w3.org/2000/svg" xmlns:xlink="http://www.w3.org/1999/xlink">
<path d="M62.167,35C62.167,50.004 50.004,62.167 35,62.167L35,66.167C52.213,66.167 66.167,52.213 66.167,35L62.167,35ZM35,62.167C19.996,62.167 7.833,50.004 7.833,35L3.833,35C3.833,52.213 17.787,66.167 35,66.167L35,62.167ZM7.833,35C7.833,19.996 19.996,7.833 35,7.833L35,3.833C17.787,3.833 3.833,17.787 3.833,35L7.833,35ZM35,7.833C50.004,7.833 62.167,19.996 62.167,35L66.167,35C66.167,17.787 52.213,3.833 35,3.833L35,7.833Z" fill="#FFFFFF"/>
<path d="M24.626,25.587C24.259,26.628 24.807,27.77 25.849,28.137C26.891,28.503 28.033,27.956 28.399,26.914L24.626,25.587ZM43.517,29.167L41.517,29.164L41.517,29.167L43.517,29.167ZM34.134,36.019C33.087,36.369 32.52,37.501 32.869,38.549C33.219,39.597 34.351,40.164 35.399,39.814L34.134,36.019ZM28.399,26.914C28.928,25.41 29.972,24.142 31.347,23.334L29.32,19.886C27.131,21.172 25.468,23.192 24.626,25.587L28.399,26.914ZM31.347,23.334C32.721,22.527 34.337,22.231 35.908,22.501L36.584,18.559C34.082,18.129 31.509,18.6 29.32,19.886L31.347,23.334ZM35.908,22.501C37.479,22.77 38.904,23.587 39.931,24.807L42.991,22.231C41.356,20.289 39.086,18.988 36.584,18.559L35.908,22.501ZM39.931,24.807C40.957,26.026 41.519,27.57 41.517,29.164L45.517,29.17C45.521,26.631 44.626,24.173 42.991,22.231L39.931,24.807ZM41.517,29.167C41.517,31.022 40.099,32.687 38.032,34.065C37.06,34.714 36.073,35.208 35.322,35.542C34.949,35.708 34.641,35.831 34.431,35.911C34.326,35.951 34.246,35.98 34.195,35.998C34.17,36.007 34.152,36.014 34.141,36.017C34.136,36.019 34.133,36.02 34.132,36.02C34.131,36.021 34.131,36.021 34.132,36.02C34.132,36.02 34.132,36.02 34.133,36.02C34.133,36.02 34.133,36.02 34.133,36.02C34.134,36.02 34.134,36.019 34.767,37.917C35.399,39.814 35.4,39.814 35.401,39.814C35.401,39.814 35.401,39.814 35.402,39.813C35.403,39.813 35.404,39.813 35.405,39.812C35.408,39.811 35.411,39.81 35.415,39.809C35.422,39.807 35.431,39.803 35.443,39.799C35.465,39.792 35.496,39.781 35.535,39.767C35.612,39.74 35.72,39.7 35.855,39.649C36.123,39.547 36.499,39.396 36.946,39.198C37.835,38.802 39.036,38.203 40.251,37.393C42.56,35.855 45.517,33.145 45.517,29.167L41.517,29.167Z" fill="#FFFFFF"/>
<line x1="35" y1="47.583" x2="35.029" y2="47.583" stroke="#FFFFFF" stroke-width="2" stroke-miterlimit="3.999327" stroke-linecap="round" stroke-linejoin="round"/>
</svg>
