<svg width="100" height="100" viewBox="0 0 100 100" fill="none" xmlns="http://www.w3.org/2000/svg" xmlns:xlink="http://www.w3.org/1999/xlink">
<path d="M12.5,37.5L11.272,35.921C10.785,36.3 10.5,36.883 10.5,37.5L12.5,37.5ZM50,8.333L51.228,6.755C50.506,6.193 49.494,6.193 48.772,6.755L50,8.333ZM87.5,37.5L89.5,37.5C89.5,36.883 89.215,36.3 88.728,35.921L87.5,37.5ZM12.5,83.333L10.5,83.333L12.5,83.333ZM13.728,39.079L51.228,9.912L48.772,6.755L11.272,35.921L13.728,39.079ZM48.772,9.912L86.272,39.079L88.728,35.921L51.228,6.755L48.772,9.912ZM85.5,37.5L85.5,83.333L89.5,83.333L89.5,37.5L85.5,37.5ZM85.5,83.333C85.5,85.013 84.833,86.624 83.645,87.812L86.473,90.64C88.411,88.702 89.5,86.074 89.5,83.333L85.5,83.333ZM83.645,87.812C82.457,88.999 80.846,89.667 79.167,89.667L79.167,93.667C81.907,93.667 84.536,92.578 86.473,90.64L83.645,87.812ZM79.167,89.667L20.833,89.667L20.833,93.667L79.167,93.667L79.167,89.667ZM20.833,89.667C19.154,89.667 17.543,88.999 16.355,87.812L13.527,90.64C15.464,92.578 18.093,93.667 20.833,93.667L20.833,89.667ZM16.355,87.812C15.167,86.624 14.5,85.013 14.5,83.333L10.5,83.333C10.5,86.074 11.589,88.702 13.527,90.64L16.355,87.812ZM14.5,83.333L14.5,37.5L10.5,37.5L10.5,83.333L14.5,83.333Z" fill="#FFFFFF"/>
<path d="M35.5,91.667C35.5,92.771 36.395,93.667 37.5,93.667C38.605,93.667 39.5,92.771 39.5,91.667L35.5,91.667ZM37.5,50L37.5,48C36.395,48 35.5,48.895 35.5,50L37.5,50ZM62.5,50L64.5,50C64.5,48.895 63.605,48 62.5,48L62.5,50ZM60.5,91.667C60.5,92.771 61.395,93.667 62.5,93.667C63.605,93.667 64.5,92.771 64.5,91.667L60.5,91.667ZM39.5,91.667L39.5,50L35.5,50L35.5,91.667L39.5,91.667ZM37.5,52L62.5,52L62.5,48L37.5,48L37.5,52ZM60.5,50L60.5,91.667L64.5,91.667L64.5,50L60.5,50Z" fill="#FFFFFF"/>
</svg>
