<svg width="70" height="70" viewBox="0 0 70 70" fill="none" xmlns="http://www.w3.org/2000/svg" xmlns:xlink="http://www.w3.org/1999/xlink">
<path d="M53.417,32.083C53.417,43.865 43.865,53.417 32.083,53.417L32.083,57.417C46.075,57.417 57.417,46.075 57.417,32.083L53.417,32.083ZM32.083,53.417C20.301,53.417 10.75,43.865 10.75,32.083L6.75,32.083C6.75,46.075 18.092,57.417 32.083,57.417L32.083,53.417ZM10.75,32.083C10.75,20.301 20.301,10.75 32.083,10.75L32.083,6.75C18.092,6.75 6.75,18.092 6.75,32.083L10.75,32.083ZM32.083,10.75C43.865,10.75 53.417,20.301 53.417,32.083L57.417,32.083C57.417,18.092 46.075,6.75 32.083,6.75L32.083,10.75Z" fill="#000000"/>
<path d="M59.836,62.664C60.617,63.445 61.883,63.445 62.664,62.664C63.445,61.883 63.445,60.617 62.664,59.836L59.836,62.664ZM49.977,47.148C49.196,46.367 47.929,46.367 47.148,47.148C46.367,47.929 46.367,49.196 47.148,49.977L49.977,47.148ZM62.664,59.836L49.977,47.148L47.148,49.977L59.836,62.664L62.664,59.836Z" fill="#000000"/>
</svg>
