<svg width="30" height="18" viewBox="0 0 30 18" fill="none" xmlns="http://www.w3.org/2000/svg" xmlns:xlink="http://www.w3.org/1999/xlink">
<path d="M3.914,1.336C3.133,0.555 1.867,0.555 1.086,1.336C0.305,2.117 0.305,3.383 1.086,4.164L3.914,1.336ZM15,15.25L13.586,16.664C14.367,17.445 15.633,17.445 16.414,16.664L15,15.25ZM28.914,4.164C29.695,3.383 29.695,2.117 28.914,1.336C28.133,0.555 26.867,0.555 26.086,1.336L28.914,4.164ZM1.086,4.164L13.586,16.664L16.414,13.836L3.914,1.336L1.086,4.164ZM16.414,16.664L28.914,4.164L26.086,1.336L13.586,13.836L16.414,16.664Z" fill="#000000"/>
</svg>
