<svg width="52" height="52" viewBox="0 0 52 52" fill="none" xmlns="http://www.w3.org/2000/svg" xmlns:xlink="http://www.w3.org/1999/xlink">
<path d="M32.114,9.211C31.029,9 29.979,9.708 29.768,10.792C29.557,11.876 30.265,12.926 31.349,13.137L32.114,9.211ZM38.845,20.618C39.057,21.702 40.108,22.409 41.192,22.197C42.276,21.985 42.983,20.934 42.771,19.85L38.845,20.618ZM31.952,0.012C30.854,-0.11 29.865,0.682 29.743,1.78C29.622,2.877 30.413,3.866 31.511,3.988L31.952,0.012ZM48.013,20.435C48.136,21.532 49.126,22.322 50.224,22.198C51.321,22.075 52.111,21.085 51.987,19.987L48.013,20.435ZM47.702,38.514L45.703,38.464C45.702,38.48 45.702,38.497 45.702,38.514L47.702,38.514ZM47.702,45.394L45.702,45.394L45.702,45.402L47.702,45.394ZM42.692,49.981L42.477,51.97C42.489,51.971 42.501,51.972 42.513,51.973L42.692,49.981ZM22.861,42.94L23.948,41.261L23.932,41.251L22.861,42.94ZM9.073,29.179L10.761,28.105L10.751,28.09L9.073,29.179ZM2.019,9.294L0.027,9.474C0.028,9.484 0.029,9.495 0.03,9.505L2.019,9.294ZM6.592,4.294L6.592,2.294L6.59,2.294L6.592,4.294ZM13.485,4.294L13.485,6.294L13.505,6.293L13.485,4.294ZM18.081,8.239L20.064,7.976L20.062,7.958L18.081,8.239ZM19.69,14.683L17.817,15.384L17.818,15.388L19.69,14.683ZM18.656,19.523L20.069,20.938L20.077,20.93L18.656,19.523ZM15.737,22.436L14.325,21.02C13.686,21.657 13.553,22.642 14,23.426L15.737,22.436ZM29.525,36.197L28.538,37.936C29.32,38.38 30.302,38.248 30.938,37.613L29.525,36.197ZM32.444,33.284L31.039,31.861L31.031,31.869L32.444,33.284ZM37.292,32.252L36.59,34.125L36.594,34.126L37.292,32.252ZM43.75,33.858L44.028,31.877L44.011,31.875L43.75,33.858ZM31.349,13.137C33.203,13.499 34.907,14.404 36.243,15.736L39.068,12.905C37.17,11.01 34.748,9.724 32.114,9.211L31.349,13.137ZM36.243,15.736C37.578,17.069 38.484,18.769 38.845,20.618L42.771,19.85C42.257,17.218 40.967,14.8 39.068,12.905L36.243,15.736ZM31.511,3.988C35.724,4.455 39.652,6.338 42.651,9.327L45.475,6.494C41.834,2.865 37.065,0.579 31.952,0.012L31.511,3.988ZM42.651,9.327C45.649,12.316 47.54,16.233 48.013,20.435L51.987,19.987C51.413,14.882 49.116,10.124 45.475,6.494L42.651,9.327ZM45.702,38.514L45.702,45.394L49.702,45.394L49.702,38.514L45.702,38.514ZM45.702,45.402C45.704,45.762 45.63,46.118 45.485,46.448L49.149,48.053C49.517,47.212 49.706,46.304 49.702,45.386L45.702,45.402ZM45.485,46.448C45.341,46.778 45.129,47.074 44.862,47.318L47.564,50.268C48.241,49.648 48.781,48.894 49.149,48.053L45.485,46.448ZM44.862,47.318C44.596,47.562 44.282,47.748 43.939,47.863L45.218,51.653C46.088,51.36 46.887,50.888 47.564,50.268L44.862,47.318ZM43.939,47.863C43.596,47.979 43.233,48.022 42.872,47.989L42.513,51.973C43.427,52.056 44.348,51.947 45.218,51.653L43.939,47.863ZM42.908,47.993C36.147,47.26 29.653,44.954 23.948,41.261L21.774,44.619C28.005,48.652 35.095,51.169 42.477,51.97L42.908,47.993ZM23.932,41.251C18.628,37.887 14.131,33.398 10.76,28.105L7.386,30.253C11.072,36.042 15.99,40.951 21.79,44.629L23.932,41.251ZM10.751,28.09C7.039,22.37 4.728,15.858 4.007,9.082L0.03,9.505C0.817,16.908 3.341,24.02 7.396,30.268L10.751,28.09ZM4.011,9.113C3.978,8.756 4.021,8.396 4.135,8.056L0.345,6.777C0.053,7.644 -0.056,8.563 0.027,9.474L4.011,9.113ZM4.135,8.056C4.25,7.716 4.435,7.403 4.677,7.138L1.726,4.438C1.108,5.114 0.638,5.91 0.345,6.777L4.135,8.056ZM4.677,7.138C4.92,6.872 5.216,6.66 5.546,6.515L3.932,2.855C3.095,3.224 2.343,3.763 1.726,4.438L4.677,7.138ZM5.546,6.515C5.876,6.369 6.233,6.294 6.593,6.294L6.59,2.294C5.675,2.294 4.77,2.485 3.932,2.855L5.546,6.515ZM6.592,6.294L13.485,6.294L13.485,2.294L6.592,2.294L6.592,6.294ZM13.505,6.293C14.136,6.287 14.747,6.51 15.225,6.92L17.83,3.885C16.616,2.843 15.065,2.278 13.466,2.294L13.505,6.293ZM15.225,6.92C15.702,7.33 16.013,7.898 16.101,8.519L20.062,7.958C19.837,6.374 19.044,4.927 17.83,3.885L15.225,6.92ZM16.099,8.501C16.409,10.852 16.986,13.161 17.817,15.384L21.563,13.983C20.838,12.044 20.335,10.029 20.064,7.976L16.099,8.501ZM17.818,15.388C17.992,15.851 18.03,16.353 17.927,16.836L21.839,17.672C22.102,16.44 22.006,15.158 21.562,13.979L17.818,15.388ZM17.927,16.836C17.824,17.319 17.584,17.763 17.235,18.115L20.077,20.93C20.964,20.035 21.575,18.905 21.839,17.672L17.927,16.836ZM17.243,18.107L14.325,21.02L17.15,23.851L20.069,20.938L17.243,18.107ZM14,23.426C17.449,29.481 22.472,34.494 28.538,37.936L30.512,34.458C25.072,31.37 20.568,26.875 17.475,21.446L14,23.426ZM30.938,37.613L33.856,34.7L31.031,31.869L28.112,34.781L30.938,37.613ZM33.849,34.708C34.201,34.36 34.647,34.119 35.133,34.016L34.3,30.104C33.068,30.366 31.936,30.976 31.039,31.861L33.849,34.708ZM35.133,34.016C35.619,33.912 36.125,33.95 36.59,34.125L37.995,30.38C36.815,29.937 35.533,29.841 34.3,30.104L35.133,34.016ZM36.594,34.126C38.82,34.955 41.133,35.53 43.489,35.841L44.011,31.875C41.954,31.604 39.934,31.102 37.99,30.378L36.594,34.126ZM43.471,35.838C44.102,35.927 44.678,36.244 45.089,36.729L48.139,34.14C47.092,32.908 45.629,32.103 44.028,31.877L43.471,35.838ZM45.089,36.729C45.5,37.213 45.718,37.831 45.703,38.464L49.701,38.563C49.742,36.947 49.185,35.373 48.139,34.14L45.089,36.729Z" fill="#FFFFFF"/>
</svg>
